<svg width="68" height="14" viewBox="0 0 68 14" fill="none" xmlns="http://www.w3.org/2000/svg">
<path d="M61.4102 1.15991C62.6582 1.15991 63.1111 1.28995 63.5674 1.53394C64.0237 1.77797 64.3819 2.13623 64.626 2.59253C64.87 3.04878 65 3.50176 65 4.74976V9.07007C65 10.3181 64.87 10.771 64.626 11.2273C64.3819 11.6836 64.0237 12.0419 63.5674 12.2859C63.1111 12.5299 62.6582 12.6599 61.4102 12.6599H46.5898C45.3418 12.6599 44.8889 12.5299 44.4326 12.2859C43.9763 12.0419 43.6181 11.6836 43.374 11.2273C43.13 10.771 43 10.3181 43 9.07007V4.74976C43 3.50176 43.13 3.04878 43.374 2.59253C43.6181 2.13623 43.9763 1.77797 44.4326 1.53394C44.8889 1.28995 45.3418 1.15991 46.5898 1.15991H61.4102ZM46.5898 2.15991C45.603 2.15991 45.2581 2.22659 44.9043 2.41577C44.6223 2.5666 44.4067 2.78218 44.2559 3.06421C44.0667 3.41803 44 3.76296 44 4.74976V9.07007C44 10.0569 44.0667 10.4018 44.2559 10.7556C44.4067 11.0376 44.6223 11.2532 44.9043 11.4041C45.2581 11.5932 45.603 11.6599 46.5898 11.6599H61.4102C62.397 11.6599 62.7419 11.5932 63.0957 11.4041C63.3777 11.2532 63.5933 11.0376 63.7441 10.7556C63.9333 10.4018 64 10.0569 64 9.07007V4.74976C64 3.76296 63.9333 3.41803 63.7441 3.06421C63.5933 2.78218 63.3777 2.5666 63.0957 2.41577C62.7419 2.22659 62.397 2.15991 61.4102 2.15991H46.5898ZM66 4.85034C66.0184 4.85977 67.5 5.62146 67.5 6.85034C67.4997 8.08666 66 8.85034 66 8.85034V4.85034Z" fill="black" fill-opacity="0.36"/>
<rect x="45" y="3.07666" width="18" height="7.66667" rx="1.6" fill="black"/>
<path d="M2 8.30005C2.27879 8.30005 2.41826 8.29945 2.53418 8.32251C3.01021 8.4172 3.38187 8.78984 3.47656 9.26587C3.49961 9.38178 3.5 9.52129 3.5 9.80005V10.8C3.5 11.0787 3.49961 11.2183 3.47656 11.3342C3.38178 11.8101 3.01005 12.1819 2.53418 12.2766C2.41826 12.2997 2.27879 12.3 2 12.3C1.72121 12.3 1.58174 12.2997 1.46582 12.2766C0.98995 12.1819 0.618223 11.8101 0.523438 11.3342C0.500385 11.2183 0.5 11.0787 0.5 10.8V9.80005C0.5 9.52129 0.500388 9.38178 0.523438 9.26587C0.618125 8.78984 0.989792 8.4172 1.46582 8.32251C1.58174 8.29945 1.72121 8.30005 2 8.30005ZM6.7998 6.30005C7.07845 6.30005 7.2181 6.29949 7.33398 6.32251C7.81001 6.4172 8.18266 6.78984 8.27734 7.26587C8.30036 7.38175 8.2998 7.52141 8.2998 7.80005V10.8C8.2998 11.0787 8.3004 11.2183 8.27734 11.3342C8.1826 11.8102 7.80996 12.1819 7.33398 12.2766C7.21808 12.2997 7.07854 12.3 6.7998 12.3C6.52113 12.3 6.38152 12.2997 6.26562 12.2766C5.78983 12.1819 5.418 11.81 5.32324 11.3342C5.30019 11.2183 5.2998 11.0787 5.2998 10.8V7.80005C5.2998 7.52132 5.3002 7.38177 5.32324 7.26587C5.41792 6.7899 5.78968 6.41725 6.26562 6.32251C6.38152 6.29946 6.52113 6.30005 6.7998 6.30005ZM11.4004 4.00024C11.6789 4.00024 11.8187 3.99966 11.9346 4.02271C12.4104 4.11753 12.7823 4.49017 12.877 4.96606C12.8999 5.08192 12.9004 5.2217 12.9004 5.50024V10.8C12.9004 11.0787 12.9 11.2183 12.877 11.3342C12.7822 11.81 12.4103 12.1818 11.9346 12.2766C11.8187 12.2997 11.6789 12.3 11.4004 12.3C11.1218 12.3 10.9821 12.2996 10.8662 12.2766C10.3903 12.1819 10.0176 11.8102 9.92285 11.3342C9.8998 11.2183 9.90039 11.0787 9.90039 10.8V5.50024C9.90039 5.22173 9.89986 5.08192 9.92285 4.96606C10.0175 4.49004 10.3902 4.11739 10.8662 4.02271C10.9821 3.99972 11.1219 4.00024 11.4004 4.00024ZM16.0996 1.59985C16.3782 1.59985 16.5179 1.60028 16.6338 1.62329C17.1098 1.71798 17.4825 2.08966 17.5771 2.56567C17.6002 2.68159 17.5996 2.82106 17.5996 3.09985V10.8C17.5996 11.0787 17.6002 11.2183 17.5771 11.3342C17.4824 11.8102 17.1097 12.1819 16.6338 12.2766C16.5179 12.2996 16.3782 12.3 16.0996 12.3C15.8211 12.3 15.6813 12.2997 15.5654 12.2766C15.0897 12.1818 14.7178 11.81 14.623 11.3342C14.6 11.2183 14.5996 11.0787 14.5996 10.8V3.09985C14.5996 2.82106 14.6 2.68159 14.623 2.56567C14.7177 2.08985 15.0897 1.71814 15.5654 1.62329C15.6813 1.60024 15.8211 1.59985 16.0996 1.59985Z" fill="black"/>
<path fill-rule="evenodd" clip-rule="evenodd" d="M30.3004 3.69626C32.5348 3.69636 34.6838 4.55491 36.3031 6.09447C36.4251 6.21333 36.62 6.21183 36.7401 6.09111L37.9058 4.91469C37.9666 4.85346 38.0005 4.77053 38 4.68423C37.9995 4.59793 37.9646 4.5154 37.9031 4.45488C33.6527 0.381575 26.9474 0.381575 22.697 4.45488C22.6355 4.51535 22.6005 4.59786 22.6 4.68416C22.5994 4.77046 22.6333 4.85342 22.694 4.91469L23.86 6.09111C23.98 6.21201 24.1751 6.21351 24.297 6.09447C25.9165 4.55481 28.0658 3.69626 30.3004 3.69626ZM30.3004 7.52365C31.5281 7.52357 32.7119 7.97989 33.6219 8.80393C33.745 8.92088 33.9389 8.91834 34.0589 8.79821L35.2232 7.6218C35.2845 7.56009 35.3185 7.47638 35.3177 7.38939C35.3168 7.30241 35.281 7.21941 35.2185 7.15896C32.4473 4.58121 28.1558 4.58121 25.3847 7.15896C25.3221 7.21941 25.2863 7.30245 25.2855 7.38946C25.2847 7.47648 25.3188 7.56018 25.3803 7.6218L26.5443 8.79821C26.6642 8.91834 26.8581 8.92088 26.9812 8.80393C27.8906 7.98043 29.0735 7.52416 30.3004 7.52365ZM32.5379 10.3313C32.6002 10.2701 32.6345 10.186 32.6327 10.0988C32.6309 10.0116 32.5932 9.92895 32.5285 9.87043C31.2423 8.78253 29.3585 8.78253 28.0723 9.87043C28.0075 9.9289 27.9697 10.0115 27.9679 10.0987C27.9661 10.186 28.0003 10.2701 28.0625 10.3313L30.0769 12.3638C30.1359 12.4235 30.2164 12.4571 30.3004 12.4571C30.3844 12.4571 30.4649 12.4235 30.5239 12.3638L32.5379 10.3313Z" fill="black"/>
</svg>
